<?xml version="1.0" encoding="utf-8"?>
<!-- Generator: Adobe Illustrator 15.0.0, SVG Export Plug-In . SVG Version: 6.00 Build 0)  -->
<!DOCTYPE svg PUBLIC "-//W3C//DTD SVG 1.1//EN" "http://www.w3.org/Graphics/SVG/1.1/DTD/svg11.dtd">
<svg version="1.1" id="_x2018_Ë_x201E_Û_xF8FF__x2021__x5F_1_x5F_1_x5F_"
	 xmlns="http://www.w3.org/2000/svg" xmlns:xlink="http://www.w3.org/1999/xlink" x="0px" y="0px" width="46px" height="40px"
	 viewBox="0 0 46 40" enable-background="new 0 0 46 40" xml:space="preserve">
<g id="_x2018_Ë_x201E_Û_xF8FF__x2021__x5F_1">
	<path fill-rule="evenodd" clip-rule="evenodd" fill="#FFFFFF" d="M45.965,34.167c-0.013-0.039-0.028-0.077-0.05-0.113L26.435,0.322
		C26.319,0.123,26.106,0,25.877,0H20.12c-0.084,0-0.166,0.017-0.242,0.047c-0.014,0.006-0.027,0.013-0.041,0.02
		c-0.013,0.006-0.027,0.012-0.04,0.02c-0.012,0.007-0.023,0.015-0.035,0.023s-0.023,0.015-0.035,0.023
		c-0.008,0.006-0.016,0.014-0.023,0.021c-0.014,0.011-0.027,0.022-0.04,0.034c-0.003,0.003-0.006,0.007-0.009,0.01
		c-0.016,0.017-0.032,0.034-0.046,0.053c-0.002,0.003-0.004,0.007-0.007,0.01c-0.015,0.02-0.028,0.04-0.041,0.061L0.086,34.054
		c-0.115,0.199-0.115,0.445,0,0.645l2.882,4.98c0.084,0.145,0.22,0.248,0.376,0.295c0.004,0.001,0.009,0.003,0.013,0.004
		c0.018,0.005,0.036,0.008,0.055,0.012c0.009,0.001,0.019,0.004,0.028,0.005C3.468,39.998,3.497,40,3.525,40h38.958
		c0.229,0,0.442-0.122,0.558-0.321l2.875-4.981C46.009,34.534,46.024,34.341,45.965,34.167z M25.506,1.288l18.736,32.444H13.268
		l2.129-3.689H30.97l0,0h5.761c0.23,0,0.442-0.122,0.558-0.321s0.115-0.444,0-0.644L21.235,1.288H25.506z M29.854,28.755H16.14
		l6.858-11.885L29.854,28.755z M20.121,1.931l15.496,26.824h-4.275l-7.778-13.482c-0.002-0.004-0.004-0.009-0.007-0.013l-2.71-4.697
		l-0.167-0.29c-0.029-0.05-0.064-0.095-0.104-0.135c-0.072-0.072-0.161-0.124-0.257-0.155c-0.01-0.003-0.019-0.007-0.029-0.01
		c-0.011-0.003-0.022-0.004-0.033-0.006c-0.017-0.004-0.033-0.008-0.05-0.01c-0.013-0.001-0.027-0.001-0.04-0.002
		c-0.015-0.001-0.03-0.003-0.045-0.003h0c-0.144,0-0.28,0.048-0.391,0.133c-0.066,0.051-0.123,0.115-0.166,0.189L3.524,38.069
		l-2.137-3.694L20.121,1.931z M42.111,38.712H4.64l2.153-3.73l13.328-23.099l2.134,3.7L11.596,34.054
		c-0.115,0.199-0.115,0.444,0,0.644s0.328,0.321,0.557,0.321h32.09L42.111,38.712z"/>
</g>
</svg>
